<svg width="20" height="18" viewBox="0 0 20 18" fill="none" xmlns="http://www.w3.org/2000/svg">
<path d="M17.7239 9.31056H14.3041C15.5715 9.31056 16.5803 8.31313 16.5803 7.10786V2.16935C16.5803 0.963955 15.5715 0 14.3041 0H9.11145C7.84407 0 6.79059 0.963892 6.79059 2.16935V7.1078C6.79059 7.55534 6.94408 7.9717 7.18768 8.31855L7.09562 8.22564C6.66286 7.81412 6.08841 7.58742 5.47306 7.58742C4.85764 7.58742 4.28185 7.81412 3.84909 8.22564L0.67196 11.2479C-0.22421 12.1002 -0.223875 13.4871 0.672295 14.3394L3.8503 17.3618C4.28306 17.7733 4.86039 18 5.47574 18C6.09109 18 6.66835 17.7733 7.10112 17.3618L10.2679 14.3394C10.5968 14.0267 10.8137 13.6419 10.8808 13.2378V15.7807C10.8808 16.9859 11.9343 17.9834 13.2016 17.9834H17.7238C18.9912 17.9834 20 16.9859 20 15.7807V11.4799C20.0001 10.2745 18.9912 9.31056 17.7239 9.31056ZM11.9956 1.81823C12.7716 1.81823 13.5032 2.1036 14.0558 2.62186C14.2667 2.81968 14.2691 3.14261 14.0611 3.3433C13.8529 3.54392 13.5133 3.54622 13.3024 3.3484C12.9519 3.01973 12.4878 2.83862 11.9956 2.83862C10.9693 2.83862 10.1344 3.63263 10.1344 4.60863C10.1344 5.58464 10.9693 6.37865 11.9956 6.37865C12.5394 6.37865 13.0546 6.15322 13.409 5.76014C13.6018 5.54625 13.9405 5.52151 14.1653 5.70498C14.3902 5.88832 14.4163 6.21042 14.2234 6.42424C13.665 7.04378 12.853 7.39898 11.9955 7.39898C10.3777 7.39898 9.06149 6.14723 9.06149 4.60863C9.06156 3.06998 10.3778 1.81823 11.9956 1.81823ZM8.90217 12.9704C8.80569 13.2367 8.50046 13.3782 8.22031 13.2865L7.42941 13.0274L5.73081 14.6428L5.99634 15.4105C6.08895 15.6782 5.93586 15.9666 5.65437 16.0546C5.59872 16.072 5.54219 16.0803 5.48667 16.0803C5.26124 16.0803 5.05143 15.9441 4.97713 15.7294L3.52656 11.5356C3.46293 11.3515 3.51436 11.1489 3.65946 11.0129C3.8045 10.8767 4.0182 10.8307 4.21084 10.8938L8.56966 12.3218C8.84987 12.4136 8.99873 12.704 8.90217 12.9704ZM10.8808 11.4798V12.3497C10.8137 11.9458 10.5968 11.5608 10.2679 11.248L7.83274 8.93515C8.19744 9.16682 8.64087 9.31056 9.11145 9.31056H13.2017C11.9343 9.31056 10.8808 10.2745 10.8808 11.4798ZM15.8883 16.134H13.9205C13.6243 16.134 13.3618 15.8889 13.3618 15.6071V11.6534C13.3618 11.3716 13.6243 11.1599 13.9205 11.1599H15.3317C16.2044 11.1599 16.9144 11.8359 16.9144 12.6771C16.9144 12.9026 16.8614 13.1167 16.7627 13.3159C17.1893 13.5903 17.4711 14.0657 17.4711 14.5973C17.471 15.4411 16.761 16.134 15.8883 16.134Z" fill="white"/>
</svg>
