<svg width="26" height="26" viewBox="0 0 26 26" fill="none" xmlns="http://www.w3.org/2000/svg">
<path d="M20.9771 2.82927C18.0025 0.410937 14.1001 -0.52014 10.2819 0.28318C5.52143 1.27712 1.64461 5.21187 0.635275 9.97034C-0.222679 14.0191 0.836088 18.0834 3.53876 21.1218C4.63142 22.3514 5.29798 23.8354 5.51658 25.3818H8.78126V15.8896C8.78126 15.4812 11.8739 9.45502 12.0566 9.08975C12.415 8.37495 13.585 8.37495 13.9435 9.08975C14.1348 9.47239 17.2188 15.5016 17.2188 15.8896V25.3818H20.4871C20.7132 23.8428 21.3993 22.3351 22.5231 21.0529C24.5439 18.7488 25.6563 15.7907 25.6563 12.7255C25.6563 8.89709 23.9506 5.24555 20.9771 2.82927Z" fill="white"/>
</svg>
