<svg width="40" height="38" viewBox="0 0 40 38" fill="none" xmlns="http://www.w3.org/2000/svg">
<path d="M35.4475 19.6531H28.6081C31.1429 19.6531 33.1605 17.5556 33.1605 15.021V4.63551C33.1605 2.10064 31.1429 0.0734863 28.6081 0.0734863H18.2228C15.688 0.0734863 13.5811 2.1005 13.5811 4.63551V15.0208C13.5811 15.962 13.8881 16.8376 14.3753 17.567L14.1912 17.3716C13.3256 16.5062 12.1767 16.0294 10.9461 16.0294C9.71523 16.0294 8.56365 16.5062 7.69813 17.3716L1.34391 23.7273C-0.448418 25.5196 -0.447747 28.4361 1.34458 30.2286L7.70055 36.5844C8.56607 37.4498 9.72072 37.9266 10.9514 37.9266C12.1821 37.9266 13.3366 37.4498 14.2022 36.5844L20.5357 30.2286C21.1935 29.571 21.6273 28.7616 21.7615 27.9119V33.2594C21.7615 35.794 23.8684 37.8916 26.4031 37.8916H35.4474C37.9821 37.8916 39.9998 35.794 39.9998 33.2594V24.2152C39.9999 21.6801 37.9823 19.6531 35.4475 19.6531ZM23.991 3.89712C25.543 3.89712 27.0062 4.49725 28.1114 5.58713C28.5331 6.00313 28.5381 6.68224 28.122 7.10427C27.7057 7.52617 27.0265 7.531 26.6047 7.115C25.9037 6.42382 24.9754 6.04296 23.991 6.04296C21.9385 6.04296 20.2687 7.71271 20.2687 9.76521C20.2687 11.8177 21.9385 13.4875 23.991 13.4875C25.0787 13.4875 26.109 13.0134 26.8178 12.1868C27.2035 11.737 27.8809 11.6849 28.3305 12.0708C28.7803 12.4563 28.8323 13.1337 28.4466 13.5833C27.3298 14.8862 25.7058 15.6332 23.9908 15.6332C20.7553 15.6332 18.1229 13.0008 18.1229 9.76521C18.123 6.5295 20.7554 3.89712 23.991 3.89712ZM17.8042 27.3495C17.6113 27.9095 17.0008 28.2072 16.4405 28.0143L14.8587 27.4694L11.4616 30.8666L11.9926 32.4811C12.1778 33.0439 11.8717 33.6503 11.3087 33.8355C11.1974 33.8721 11.0843 33.8894 10.9733 33.8894C10.5224 33.8894 10.1028 33.6031 9.9542 33.1516L7.05308 24.3322C6.92582 23.9451 7.02868 23.5191 7.31888 23.233C7.60895 22.9466 8.03635 22.8498 8.42164 22.9826L17.1392 25.9856C17.6996 26.1787 17.9974 26.7893 17.8042 27.3495ZM21.7615 24.215V26.0444C21.6273 25.1949 21.1934 24.3853 20.5356 23.7274L15.6654 18.8636C16.3948 19.3509 17.2816 19.6531 18.2228 19.6531H26.4033C23.8684 19.6531 21.7615 21.6801 21.7615 24.215ZM31.7765 34.0025H27.8409C27.2484 34.0025 26.7234 33.487 26.7234 32.8945V24.5799C26.7234 23.9874 27.2484 23.5422 27.8409 23.5422H30.6632C32.4086 23.5422 33.8286 24.9637 33.8286 26.7327C33.8286 27.2071 33.7227 27.6573 33.5252 28.0761C34.3784 28.6531 34.9419 29.653 34.9419 30.7709C34.9418 32.5453 33.5218 34.0025 31.7765 34.0025Z" fill="white"/>
</svg>
