<svg width="84" height="17" viewBox="0 0 84 17" fill="none" xmlns="http://www.w3.org/2000/svg">
<path d="M10.3769 13.1236C10.1687 13.2949 9.89646 13.435 9.56017 13.544C9.2399 13.6374 8.86358 13.6841 8.43121 13.6841C7.85472 13.6841 7.37431 13.614 6.98998 13.4739C6.62166 13.3338 6.38146 13.0925 6.26936 12.75C5.82098 11.38 5.45266 10.2747 5.16442 9.43407C4.87617 8.57784 4.65198 7.83059 4.49184 7.19231H4.37174C4.3237 8.11081 4.28366 8.95147 4.25164 9.71429C4.23562 10.4615 4.21961 11.1932 4.20359 11.9093C4.20359 12.6255 4.18758 13.3494 4.15555 14.081C4.13954 14.8127 4.10751 15.6223 4.05947 16.5096C3.85129 16.5875 3.57906 16.6497 3.24277 16.6964C2.90648 16.7587 2.5702 16.7898 2.23391 16.7898C1.52931 16.7898 0.976835 16.6809 0.576493 16.4629C0.192164 16.245 0 15.848 0 15.272L0.696596 3.36264C0.824705 3.16026 1.10494 2.94231 1.53731 2.70879C1.96968 2.47528 2.5782 2.35852 3.36287 2.35852C4.2116 2.35852 4.87617 2.49084 5.35658 2.75549C5.83699 3.00458 6.18929 3.41712 6.41348 3.99313C6.55761 4.36676 6.70974 4.79487 6.86987 5.27747C7.04602 5.76007 7.21417 6.25824 7.37431 6.77198C7.55046 7.28571 7.7186 7.79945 7.87874 8.31319C8.03887 8.81136 8.183 9.26282 8.31111 9.66758H8.43121C8.81554 8.35989 9.19987 7.0989 9.5842 5.88462C9.96852 4.65476 10.3208 3.62729 10.6411 2.8022C10.8813 2.67766 11.1856 2.57647 11.5539 2.49863C11.9382 2.40522 12.3626 2.35852 12.827 2.35852C13.6116 2.35852 14.2522 2.47528 14.7486 2.70879C15.245 2.92674 15.5333 3.24588 15.6133 3.66621C15.6774 3.97756 15.7415 4.46017 15.8055 5.11401C15.8856 5.75229 15.9657 6.47619 16.0457 7.28571C16.1258 8.09524 16.2059 8.95146 16.2859 9.85439C16.366 10.7573 16.4381 11.6291 16.5021 12.4698C16.5822 13.2949 16.6462 14.0577 16.6943 14.7582C16.7423 15.4432 16.7743 15.9725 16.7904 16.3462C16.5181 16.5018 16.2299 16.6108 15.9256 16.6731C15.6374 16.7509 15.261 16.7898 14.7967 16.7898C14.1881 16.7898 13.6757 16.6886 13.2593 16.4863C12.843 16.2839 12.6188 15.8869 12.5868 15.2953C12.4907 13.5984 12.4266 12.0728 12.3946 10.7184C12.3786 9.36401 12.3466 8.22756 12.2985 7.30907H12.1784C12.0183 7.91621 11.7861 8.67903 11.4818 9.59753C11.1776 10.516 10.8092 11.6914 10.3769 13.1236Z" fill="#25334E"/>
<path d="M24.1376 14.081C24.4099 14.081 24.7061 14.0577 25.0264 14.011C25.3627 13.9487 25.6109 13.8709 25.771 13.7775V11.9093L24.0416 12.0494C23.5932 12.0806 23.2249 12.174 22.9366 12.3297C22.6484 12.4853 22.5042 12.7189 22.5042 13.0302C22.5042 13.3416 22.6243 13.5984 22.8645 13.8008C23.1208 13.9876 23.5451 14.081 24.1376 14.081ZM23.9455 4.90385C24.8102 4.90385 25.5949 4.98947 26.2995 5.16071C27.0201 5.33196 27.6286 5.59661 28.125 5.95467C28.6375 6.29716 29.0298 6.74084 29.302 7.28571C29.5743 7.81502 29.7104 8.44551 29.7104 9.1772V14.408C29.7104 14.8127 29.5903 15.1474 29.3501 15.4121C29.1259 15.6612 28.8537 15.8791 28.5334 16.0659C27.4925 16.6731 26.0273 16.9766 24.1376 16.9766C23.2889 16.9766 22.5203 16.8988 21.8317 16.7431C21.1591 16.5875 20.5746 16.3539 20.0782 16.0426C19.5978 15.7312 19.2214 15.3342 18.9492 14.8516C18.693 14.369 18.5649 13.8086 18.5649 13.1703C18.5649 12.0962 18.8932 11.2711 19.5497 10.6951C20.2063 10.119 21.2231 9.76099 22.6003 9.62088L25.747 9.29396V9.13049C25.747 8.67903 25.5388 8.35989 25.1225 8.17308C24.7221 7.9707 24.1376 7.86951 23.369 7.86951C22.7605 7.86951 22.168 7.93178 21.5915 8.05632C21.015 8.18086 20.4945 8.33654 20.0301 8.52335C19.8219 8.38324 19.6458 8.17308 19.5017 7.89286C19.3575 7.59707 19.2855 7.2935 19.2855 6.98214C19.2855 6.57738 19.3816 6.25824 19.5737 6.02473C19.7819 5.77564 20.0942 5.56548 20.5105 5.39423C20.9749 5.22299 21.5194 5.09844 22.1439 5.0206C22.7845 4.94277 23.385 4.90385 23.9455 4.90385Z" fill="#25334E"/>
<path d="M32.1111 2.10165C32.1111 1.51007 32.3113 1.0119 32.7117 0.607142C33.128 0.202381 33.6725 0 34.3451 0C35.0176 0 35.5541 0.202381 35.9544 0.607142C36.3708 1.0119 36.579 1.51007 36.579 2.10165C36.579 2.69322 36.3708 3.19139 35.9544 3.59615C35.5541 4.00092 35.0176 4.2033 34.3451 4.2033C33.6725 4.2033 33.128 4.00092 32.7117 3.59615C32.3113 3.19139 32.1111 2.69322 32.1111 2.10165ZM36.3868 16.5797C36.2106 16.6108 35.9464 16.6497 35.5941 16.6964C35.2578 16.7587 34.9135 16.7898 34.5612 16.7898C34.2089 16.7898 33.8887 16.7665 33.6004 16.7198C33.3282 16.6731 33.096 16.5797 32.9038 16.4396C32.7117 16.2995 32.5595 16.1126 32.4474 15.8791C32.3513 15.63 32.3033 15.3109 32.3033 14.9217V5.41758C32.4795 5.38645 32.7357 5.34753 33.072 5.30082C33.4243 5.23855 33.7766 5.20742 34.1289 5.20742C34.4812 5.20742 34.7934 5.23077 35.0657 5.27747C35.3539 5.32418 35.5941 5.41758 35.7863 5.55769C35.9784 5.6978 36.1226 5.8924 36.2187 6.14148C36.3307 6.375 36.3868 6.68636 36.3868 7.07555V16.5797Z" fill="#25334E"/>
<path d="M46.3848 9.41071C46.3848 8.92811 46.2407 8.57784 45.9524 8.35989C45.6802 8.12637 45.3039 8.00961 44.8234 8.00961C44.5032 8.00961 44.1829 8.04853 43.8626 8.12637C43.5584 8.20421 43.2941 8.32097 43.0699 8.47665V16.5797C42.9098 16.6264 42.6536 16.6731 42.3013 16.7198C41.965 16.7665 41.6127 16.7898 41.2444 16.7898C40.8921 16.7898 40.5718 16.7665 40.2836 16.7198C40.0113 16.6731 39.7791 16.5797 39.587 16.4396C39.3948 16.2995 39.2427 16.1126 39.1306 15.8791C39.0345 15.63 38.9865 15.3109 38.9865 14.9217V7.91621C38.9865 7.49588 39.0745 7.15339 39.2507 6.88874C39.4428 6.62408 39.6991 6.38278 40.0193 6.16483C40.5638 5.79121 41.2444 5.48764 42.0611 5.25412C42.8938 5.0206 43.8146 4.90385 44.8234 4.90385C46.633 4.90385 48.0262 5.29304 49.003 6.07143C49.9799 6.83425 50.4683 7.90064 50.4683 9.27061V16.5797C50.3081 16.6264 50.0519 16.6731 49.6996 16.7198C49.3633 16.7665 49.011 16.7898 48.6427 16.7898C48.2904 16.7898 47.9701 16.7665 47.6819 16.7198C47.4097 16.6731 47.1775 16.5797 46.9853 16.4396C46.7931 16.2995 46.641 16.1126 46.5289 15.8791C46.4328 15.63 46.3848 15.3109 46.3848 14.9217V9.41071Z" fill="#25334E"/>
<path d="M57.9869 14.081C58.2591 14.081 58.5554 14.0577 58.8756 14.011C59.2119 13.9487 59.4601 13.8709 59.6203 13.7775V11.9093L57.8908 12.0494C57.4424 12.0806 57.0741 12.174 56.7859 12.3297C56.4976 12.4853 56.3535 12.7189 56.3535 13.0302C56.3535 13.3416 56.4736 13.5984 56.7138 13.8008C56.97 13.9876 57.3944 14.081 57.9869 14.081ZM57.7947 4.90385C58.6595 4.90385 59.4441 4.98947 60.1487 5.16071C60.8694 5.33196 61.4779 5.59661 61.9743 5.95467C62.4867 6.29716 62.8791 6.74084 63.1513 7.28571C63.4235 7.81502 63.5597 8.44551 63.5597 9.1772V14.408C63.5597 14.8127 63.4396 15.1474 63.1993 15.4121C62.9752 15.6612 62.7029 15.8791 62.3826 16.0659C61.3418 16.6731 59.8765 16.9766 57.9869 16.9766C57.1382 16.9766 56.3695 16.8988 55.6809 16.7431C55.0083 16.5875 54.4238 16.3539 53.9274 16.0426C53.447 15.7312 53.0707 15.3342 52.7985 14.8516C52.5422 14.369 52.4141 13.8086 52.4141 13.1703C52.4141 12.0962 52.7424 11.2711 53.399 10.6951C54.0555 10.119 55.0724 9.76099 56.4496 9.62088L59.5963 9.29396V9.13049C59.5963 8.67903 59.3881 8.35989 58.9717 8.17308C58.5714 7.9707 57.9869 7.86951 57.2182 7.86951C56.6097 7.86951 56.0172 7.93178 55.4407 8.05632C54.8642 8.18086 54.3438 8.33654 53.8794 8.52335C53.6712 8.38324 53.495 8.17308 53.3509 7.89286C53.2068 7.59707 53.1347 7.2935 53.1347 6.98214C53.1347 6.57738 53.2308 6.25824 53.423 6.02473C53.6312 5.77564 53.9434 5.56548 54.3598 5.39423C54.8242 5.22299 55.3686 5.09844 55.9932 5.0206C56.6337 4.94277 57.2342 4.90385 57.7947 4.90385Z" fill="#25334E"/>
<path d="M73.4548 9.41071C73.4548 8.92811 73.3107 8.57784 73.0224 8.35989C72.7502 8.12637 72.3739 8.00961 71.8935 8.00961C71.5732 8.00961 71.2529 8.04853 70.9326 8.12637C70.6284 8.20421 70.3642 8.32097 70.14 8.47665V16.5797C69.9798 16.6264 69.7236 16.6731 69.3713 16.7198C69.035 16.7665 68.6827 16.7898 68.3144 16.7898C67.9621 16.7898 67.6418 16.7665 67.3536 16.7198C67.0814 16.6731 66.8492 16.5797 66.657 16.4396C66.4648 16.2995 66.3127 16.1126 66.2006 15.8791C66.1045 15.63 66.0565 15.3109 66.0565 14.9217V7.91621C66.0565 7.49588 66.1445 7.15339 66.3207 6.88874C66.5129 6.62408 66.7691 6.38278 67.0894 6.16483C67.6338 5.79121 68.3144 5.48764 69.1311 5.25412C69.9638 5.0206 70.8846 4.90385 71.8935 4.90385C73.703 4.90385 75.0962 5.29304 76.073 6.07143C77.0499 6.83425 77.5383 7.90064 77.5383 9.27061V16.5797C77.3782 16.6264 77.1219 16.6731 76.7696 16.7198C76.4333 16.7665 76.081 16.7898 75.7127 16.7898C75.3604 16.7898 75.0402 16.7665 74.7519 16.7198C74.4797 16.6731 74.2475 16.5797 74.0553 16.4396C73.8631 16.2995 73.711 16.1126 73.5989 15.8791C73.5028 15.63 73.4548 15.3109 73.4548 14.9217V9.41071Z" fill="#25334E"/>
<path d="M79.34 14.7115C79.34 14.0577 79.5482 13.5128 79.9646 13.0769C80.3809 12.641 80.9494 12.4231 81.67 12.4231C82.3906 12.4231 82.9591 12.641 83.3755 13.0769C83.7918 13.5128 84 14.0577 84 14.7115C84 15.3654 83.7918 15.9103 83.3755 16.3462C82.9591 16.7821 82.3906 17 81.67 17C80.9494 17 80.3809 16.7821 79.9646 16.3462C79.5482 15.9103 79.34 15.3654 79.34 14.7115Z" fill="#25334E"/>
</svg>
