<svg width="36" height="34" viewBox="0 0 36 34" fill="none" xmlns="http://www.w3.org/2000/svg">
<path d="M35.5095 14.5726C35.1933 14.894 34.8235 15.1576 34.4166 15.3518C34.095 15.5023 33.7122 15.3636 33.5616 15.0419C33.4111 14.7203 33.5498 14.3375 33.8715 14.1869C34.3575 13.9601 34.7616 13.5888 35.0286 13.1236C35.633 12.063 35.4083 10.7236 34.4909 9.91825C33.5735 9.11287 32.2163 9.0635 31.2429 9.80007C31.0591 9.93787 30.8158 9.96719 30.6046 9.87697C30.3934 9.78675 30.2464 9.5907 30.2189 9.36268C30.1914 9.13466 30.2877 8.9093 30.4714 8.7715C30.9344 8.42527 31.4698 8.18854 32.0374 8.07914C31.4345 4.69963 28.5043 2.23264 25.0714 2.21436C25.0528 2.21436 25.0322 2.21436 25.0136 2.21436C25.051 2.42663 25.0703 2.64168 25.0714 2.85722C25.0851 3.21226 24.8084 3.51115 24.4533 3.52482C24.0983 3.53849 23.7994 3.26176 23.7857 2.90672C23.7888 1.91965 23.2481 1.01108 22.3791 0.542929C21.5776 0.147775 20.629 0.193593 19.8693 0.664158C19.1096 1.13472 18.6461 1.96359 18.6429 2.85722C18.6429 3.21226 18.355 3.50007 18 3.50007C17.645 3.50007 17.3571 3.21226 17.3571 2.85722C17.3569 2.33193 17.4648 1.81222 17.6741 1.33043C16.7419 0.650915 15.6179 0.285109 14.4643 0.285787C12.535 0.292489 10.7497 1.30754 9.75728 2.962C9.50053 3.39785 9.30579 3.86737 9.17871 4.357C9.12061 4.57932 8.94831 4.75376 8.72672 4.81459C8.50513 4.87543 8.26791 4.81343 8.10443 4.65195C7.94095 4.49047 7.87603 4.25404 7.93414 4.03172C8.03122 3.67329 8.15764 3.32346 8.31214 2.98579C8.01278 2.90232 7.70363 2.85909 7.39285 2.85722C5.56593 2.85977 4.0411 4.25231 3.87321 6.0715C5.08446 6.07217 6.22353 6.64755 6.94285 7.62207C7.15588 7.9061 7.09832 8.30905 6.81428 8.52207C6.53025 8.7351 6.12731 8.67753 5.91428 8.3935C5.43307 7.73978 4.66888 7.35482 3.85714 7.35722C2.70187 7.35797 1.68891 8.12908 1.38063 9.24246C1.07234 10.3558 1.54442 11.5382 2.53478 12.133C2.83923 12.3157 2.93795 12.7106 2.75528 13.015C2.57261 13.3194 2.17773 13.4182 1.87328 13.2355C1.4497 12.9779 1.07991 12.6409 0.784283 12.2429C-0.469492 14.6191 -0.194742 17.5126 1.48385 19.6103C3.16244 21.708 5.92524 22.6105 8.5185 21.9083C8.41268 21.4584 8.35855 20.9979 8.35714 20.5358C8.35714 20.4271 8.37321 20.3204 8.379 20.2144H8.35714C6.58282 20.2122 5.14498 18.7744 5.14285 17.0001C5.1421 16.6426 5.42831 16.3507 5.78571 16.3444C5.95486 16.3414 6.11812 16.4065 6.23895 16.5249C6.35977 16.6433 6.42808 16.8052 6.42857 16.9744V17.0001C6.42847 17.5489 6.6622 18.0718 7.07122 18.4377C7.48023 18.8036 8.02578 18.978 8.57121 18.9171L8.577 18.9126C8.72339 18.3788 8.94206 17.8675 9.22693 17.3929C9.40995 17.0886 9.80498 16.9903 10.1092 17.1733C10.4135 17.3563 10.5118 17.7514 10.3288 18.0556C9.59404 19.2762 9.44043 20.7605 9.90964 22.1056V22.1095C10.4707 23.7416 11.862 24.9488 13.5569 25.2744C15.2517 25.5999 16.9912 24.9939 18.117 23.6858C18.304 23.495 18.5825 23.4259 18.837 23.5071C19.9834 23.9607 21.2181 24.1468 22.4473 24.0509C23.0813 24.0085 23.7084 23.8934 24.3161 23.7076C24.6555 23.6034 25.0151 23.7941 25.1193 24.1335C25.2235 24.473 25.0328 24.8326 24.6934 24.9368C23.9964 25.1499 23.2773 25.2827 22.5501 25.3328C22.5392 25.3328 22.5264 25.3328 22.5154 25.3328C22.6086 27.1399 23.2451 28.1434 26.5603 29.2484C28.5318 29.7906 30.0869 31.3071 30.6784 33.2644C30.7604 33.5343 31.0109 33.7177 31.293 33.7144H32.0644C32.2467 33.7153 32.4207 33.6388 32.5433 33.5039C32.6659 33.3691 32.7255 33.1885 32.7073 33.0072C32.5356 31.3126 32.013 28.4584 30.4354 26.7998C29.9745 26.9633 29.4999 27.0853 29.0173 27.1643C28.9833 27.1699 28.9489 27.1727 28.9144 27.1726C28.5784 27.1735 28.2984 26.9154 28.2719 26.5804C28.2455 26.2454 28.4815 25.9465 28.8135 25.8946C31.0413 25.5314 32.9584 24.1185 33.9647 22.0979C32.2265 23.0056 30.1554 23.0111 28.4124 22.1127C27.926 21.8685 27.4762 21.5576 27.0759 21.1889C25.5007 21.9356 23.6177 21.2824 22.8433 19.7206C22.6835 19.4032 22.8113 19.0164 23.1287 18.8566C23.4461 18.6969 23.8329 18.8247 23.9927 19.1421C24.4688 20.0952 25.6274 20.4819 26.5805 20.0057C27.5336 19.5296 27.9203 18.371 27.4442 17.4179C27.3409 17.2126 27.3549 16.9677 27.481 16.7756C27.6072 16.5834 27.8263 16.4731 28.0558 16.4863C28.2852 16.4994 28.4903 16.634 28.5936 16.8394C29.1773 18.005 28.9974 19.4079 28.1385 20.3886C28.4017 20.6111 28.6891 20.8033 28.9954 20.9614C29.6689 21.3149 30.418 21.4997 31.1786 21.5001C32.5376 21.4959 33.8324 20.9212 34.7471 19.9161L34.7619 19.9006C35.1071 19.5429 35.3861 19.1267 35.586 18.6715C36.1649 17.3605 36.1369 15.8611 35.5095 14.5726Z" fill="white"/>
</svg>
