<svg width="36" height="13" viewBox="0 0 36 13" fill="none" xmlns="http://www.w3.org/2000/svg">
<path d="M35.9065 4.97807L31.72 3.9283L29.4279 0.270996L27.1358 3.9283L23.714 4.78632L20.2922 3.9283L18 0.270996L15.7079 3.9283L12.2861 4.78632L8.86427 3.9283L6.57215 0.270996L4.28011 3.9283L0.0936279 4.97807L2.86352 8.2881L2.56821 12.5941L6.57215 10.9826L10.5762 12.5941L10.2809 8.2881L12.2861 5.89178L14.2914 8.2881L13.996 12.5941L18 10.9826L22.0041 12.5941L21.7087 8.2881L23.714 5.89178L25.7192 8.2881L25.4239 12.5941L29.4279 10.9826L33.4319 12.5941L33.1366 8.2881L35.9065 4.97807Z" fill="white"/>
</svg>
